<svg height="512pt" viewBox="-30 0 512 512" width="512pt" xmlns="http://www.w3.org/2000/svg"><path d="m25.601562 213.332031c-4.714843 0-8.535156-3.820312-8.535156-8.53125v-34.132812c0-4.714844 3.820313-8.535157 8.535156-8.535157 4.710938 0 8.53125 3.820313 8.53125 8.535157v34.132812c0 4.710938-3.820312 8.53125-8.53125 8.53125zm0 0" fill="#f6db6d"/><path d="m42.667969 196.265625h-34.132813c-4.714844 0-8.535156-3.820313-8.535156-8.53125 0-4.714844 3.820312-8.535156 8.535156-8.535156h34.132813c4.710937 0 8.53125 3.820312 8.53125 8.535156 0 4.710937-3.820313 8.53125-8.53125 8.53125zm0 0" fill="#f6db6d"/><path d="m375.464844 51.199219c-4.710938 0-8.53125-3.820313-8.53125-8.53125v-34.132813c0-4.714844 3.820312-8.535156 8.53125-8.535156 4.714844 0 8.535156 3.820312 8.535156 8.535156v34.132813c0 4.710937-3.820312 8.53125-8.535156 8.53125zm0 0" fill="#f6ab27"/><path d="m392.535156 34.132812h-34.136718c-4.710938 0-8.53125-3.820312-8.53125-8.53125 0-4.714843 3.820312-8.535156 8.53125-8.535156h34.136718c4.710938 0 8.53125 3.820313 8.53125 8.535156 0 4.710938-3.820312 8.53125-8.53125 8.53125zm0 0" fill="#f6ab27"/><path d="m426.667969 512c-4.714844 0-8.535157-3.820312-8.535157-8.535156v-34.132813c0-4.710937 3.820313-8.53125 8.535157-8.53125 4.710937 0 8.53125 3.820313 8.53125 8.53125v34.132813c0 4.714844-3.820313 8.535156-8.53125 8.535156zm0 0" fill="#f4cd1e"/><path d="m443.734375 494.933594h-34.132813c-4.714843 0-8.535156-3.820313-8.535156-8.535156 0-4.710938 3.820313-8.53125 8.535156-8.53125h34.132813c4.710937 0 8.53125 3.820312 8.53125 8.53125 0 4.714843-3.820313 8.535156-8.53125 8.535156zm0 0" fill="#f4cd1e"/><path d="m179.199219 512c76.800781 0 204.800781-26.042969 204.800781-164.933594 0-121.523437-119.464844-147.566406-119.464844-225.6875 0-86.800781 34.132813-112.84375 34.132813-112.84375s-145.066407 52.050782-145.066407 217.007813c0 34.722656 17.066407 86.777343-25.601562 86.777343-17.066406 0-34.132812-17.355468-34.132812-43.402343 0-26.042969 25.597656-52.050781 25.597656-52.050781s-119.464844 26.042968-119.464844 182.289062c0 69.441406 42.667969 112.84375 179.199219 112.84375zm0 0" fill="#dc6c33"/><path d="m179.199219 512c68.265625 0 110.933593-43.402344 110.933593-112.84375 0-69.445312-68.265624-112.847656-68.265624-112.847656s34.132812 156.246094-68.265626 156.246094c-42.667968 0-59.734374-34.722657-59.734374-69.441407 0 0-25.601563 26.042969-25.601563 78.121094s76.800781 60.765625 110.933594 60.765625zm0 0" fill="#f4cd1e"/></svg>